Coordinates
version=1
nRows=7
nColumns=40
inDegrees=yes

Units are S.I. units (second, meters, Newtons, ...)
If the header above contains a line with 'inDegrees', this indicates whether rotational values are in degrees (yes) or radians (no).

endheader
time	pelvis_tilt	pelvis_list	pelvis_rotation	pelvis_tx	pelvis_ty	pelvis_tz	hip_flexion_r	hip_adduction_r	hip_rotation_r	knee_angle_r	knee_angle_r_beta	ankle_angle_r	subtalar_angle_r	mtp_angle_r	hip_flexion_l	hip_adduction_l	hip_rotation_l	knee_angle_l	knee_angle_l_beta	ankle_angle_l	subtalar_angle_l	mtp_angle_l	lumbar_extension	lumbar_bending	lumbar_rotation	arm_flex_r	arm_add_r	arm_rot_r	elbow_flex_r	pro_sup_r	wrist_flex_r	wrist_dev_r	arm_flex_l	arm_add_l	arm_rot_l	elbow_flex_l	pro_sup_l	wrist_flex_l	wrist_dev_l
      1.20500000	     -0.26449791	     -4.10987572	      1.38747088	      0.16763233	      0.47575443	     -1.22093362	     84.19170693	    -49.14891412	     15.37813446	    118.56157357	      2.06928983	     33.84981873	     13.09556481	      0.00000000	     97.38221262	    -47.20933747	     26.09574845	    120.56011081	      2.10417088	     33.40581893	     21.50760019	      0.00000000	      0.00000000	      0.00000000	      0.00000000	     44.99992105	    -15.00000000	     44.99992105	     75.00017585	     45.00000026	      0.00000000	      0.00000000	     44.99992105	    -15.00000000	     44.99992105	     75.00017585	     45.00000026	      0.00000000	      0.00000000
      1.21000000	     -0.08359038	     -4.08677511	      1.36042201	      0.16779199	      0.47435136	     -1.22101630	     84.34000825	    -49.16361344	     15.73278563	    118.76853200	      2.07290193	     33.88800253	     13.20426682	      0.00000000	     97.41740040	    -47.22020307	     26.33223055	    120.80346652	      2.10841824	     33.53744122	     21.55564672	      0.00000000	      0.00000000	      0.00000000	      0.00000000	     44.99992146	    -15.00000000	     44.99992146	     75.00017585	     45.00000026	      0.00000000	      0.00000000	     44.99992146	    -15.00000000	     44.99992146	     75.00017585	     45.00000026	      0.00000000	      0.00000000
      1.21500000	      0.09000901	     -4.28841696	      1.38501046	      0.16798289	      0.47304325	     -1.22139028	     84.10965988	    -49.19328990	     15.66130979	    118.92852485	      2.07569433	     34.03970010	     13.35433267	      0.00000000	     97.73287795	    -47.12821100	     26.93941063	    121.04321655	      2.11260267	     33.65977298	     21.61392837	      0.00000000	      0.00000000	      0.00000000	      0.00000000	     44.99992181	    -15.00000000	     44.99992181	     75.00017585	     45.00000026	      0.00000000	      0.00000000	     44.99992181	    -15.00000000	     44.99992181	     75.00017585	     45.00000026	      0.00000000	      0.00000000
      1.22000000	      0.32864833	     -4.34383187	      1.34673297	      0.16818171	      0.47185121	     -1.22148357	     84.04204709	    -49.19233856	     15.83961604	    119.10959830	      2.07885466	     34.08880403	     13.49441532	      0.00000000	     97.79014478	    -47.16401237	     27.31739989	    121.26548761	      2.11648203	     33.81590560	     21.75745170	      0.00000000	      0.00000000	      0.00000000	      0.00000000	     44.99992213	    -15.00000000	     44.99992213	     75.00017585	     45.00000026	      0.00000000	      0.00000000	     44.99992213	    -15.00000000	     44.99992213	     75.00017585	     45.00000026	      0.00000000	      0.00000000
      1.22500000	      0.59278067	     -4.48205477	      1.37076455	      0.16834988	      0.47085671	     -1.22178910	     83.74092906	    -49.23683479	     15.82665125	    119.24843062	      2.08127774	     34.31956823	     13.74898408	      0.00000000	     97.88812213	    -47.11583491	     27.76327150	    121.48060800	      2.12023659	     33.92058615	     21.73006026	      0.00000000	      0.00000000	      0.00000000	      0.00000000	     44.99992236	    -15.00000000	     44.99992236	     75.00017585	     45.00000026	      0.00000000	      0.00000000	     44.99992236	    -15.00000000	     44.99992236	     75.00017585	     45.00000026	      0.00000000	      0.00000000
      1.23000000	      0.75148775	     -4.23629202	      1.27256940	      0.16855210	      0.46939117	     -1.22146401	     84.27828732	    -49.21146698	     16.61691174	    119.51074365	      2.08585597	     34.30989468	     13.81214421	      0.00000000	     97.64779990	    -47.23073193	     27.66070558	    121.68921636	      2.12387749	     34.11044496	     21.81513425	      0.00000000	      0.00000000	      0.00000000	      0.00000000	     44.99992261	    -14.99999999	     44.99992261	     75.00017585	     45.00000026	      0.00000000	      0.00000000	     44.99992261	    -14.99999999	     44.99992261	     75.00017585	     45.00000026	      0.00000000	      0.00000000
      1.23500000	      0.96490480	     -4.26983271	      1.24380154	      0.16871181	      0.46815558	     -1.22158428	     84.26003490	    -49.21283411	     16.83703301	    119.68266823	      2.08885662	     34.42918337	     13.96348371	      0.00000000	     97.70883219	    -47.24402289	     27.99062353	    121.91971615	      2.12790047	     34.19692388	     21.89587169	      0.00000000	      0.00000000	      0.00000000	      0.00000000	     44.99992280	    -14.99999999	     44.99992280	     75.00017585	     45.00000026	      0.00000000	      0.00000000	     44.99992280	    -14.99999999	     44.99992280	     75.00017585	     45.00000026	      0.00000000	      0.00000000
